<svg width="439" height="460" viewBox="0 0 439 460" fill="none" xmlns="http://www.w3.org/2000/svg">
<g filter="url(#filter0_iii_102_3)">
<path d="M141.746 142.098C172.857 99.8085 228.104 65.9856 254.568 85.4543C281.033 104.923 294.326 139.057 263.215 181.346C232.104 223.636 168.37 258.067 141.906 238.598C115.442 219.129 110.635 184.387 141.746 142.098Z" fill="#8D3F01"/>
</g>
<g filter="url(#filter1_di_102_3)">
<path d="M194.023 197.11C167.543 230.159 143.841 239.994 143.841 239.994C143.841 239.994 162.887 216.307 173.515 195.263C184.711 173.092 177.687 154.75 192.897 135.114C224.299 94.5753 257.358 90.0917 257.358 90.0917C257.358 90.0917 224.12 124.355 212.633 146.02C200.008 169.832 210.876 176.077 194.023 197.11Z" fill="#3F1C04"/>
</g>
<path d="M198.734 150.239C224.84 138.697 255.892 137.874 280.931 139.792C280.931 159.38 196.481 253.244 153.402 243.453C152.42 242.059 151.583 240.592 150.901 239.05C137.617 209.001 150.717 171.467 198.734 150.239Z" fill="black" fill-opacity="0.2"/>
<g filter="url(#filter2_iii_102_3)">
<path d="M208.255 168.46C256.273 147.232 321.024 145.349 334.308 175.398C347.592 205.446 342.158 241.672 294.141 262.9C246.123 284.128 173.706 282.319 160.422 252.271C147.138 222.222 160.238 189.688 208.255 168.46Z" fill="#8D3F01"/>
</g>
<g filter="url(#filter3_di_102_3)">
<path d="M226.268 242.181C186.862 257.693 161.407 254.443 161.407 254.443C161.407 254.443 189.709 243.359 209.391 230.383C230.128 216.712 233.151 197.304 256.11 187.828C303.509 168.264 334.423 180.808 334.423 180.808C334.423 180.808 288.551 194.014 267.813 207.102C245.021 221.487 251.346 232.309 226.268 242.181Z" fill="#3F1C04"/>
</g>
<ellipse cx="215" cy="382.5" rx="121" ry="11.5" fill="#040200" fill-opacity="0.51"/>
<path d="M86.4678 325.25H87.5635L87.8535 325.218L90.1094 325.153C90.3027 325.132 90.4961 325.121 90.6895 325.121C93.0957 325.121 95.2656 324.24 97.1992 322.479C99.1328 320.695 100.1 318.558 100.1 316.065V315.195C100.1 313.197 99.4014 311.618 98.0049 310.458C96.6084 309.298 94.7607 308.718 92.4619 308.718H90.7217C88.8096 308.718 87.6709 309.104 87.3057 309.878C86.9404 310.651 86.4033 313.068 85.6943 317.129L85.6299 317.419L85.5332 317.967L85.4688 318.225L85.3398 319.03L85.2432 319.578L85.1787 319.868L85.1143 320.126L84.9209 321.222L84.4375 323.864V324.573C84.4375 325.024 85.1143 325.25 86.4678 325.25ZM85.791 328.505C84.459 328.505 83.6426 328.892 83.3418 329.665C83.2988 329.772 83.1055 330.643 82.7617 332.275C82.418 333.908 82.1924 335.047 82.085 335.691C81.999 336.314 81.6875 337.872 81.1504 340.364C80.6348 342.835 80.377 344.489 80.377 345.327C80.377 346.315 81.29 346.81 83.1162 346.81L83.4062 346.842L83.7285 346.874L85.0176 346.906H86.6289C89.8516 346.906 92.4619 346.122 94.46 344.554C97.0381 342.491 98.3271 339.935 98.3271 336.884V335.917C98.3271 333.661 97.457 331.856 95.7168 330.503C93.998 329.128 91.6348 328.44 88.627 328.44H86.6934C86.2637 328.483 85.9629 328.505 85.791 328.505ZM77.3477 326.185C78.916 317.312 79.7002 312.316 79.7002 311.199C79.7002 310.082 79.3027 309.266 78.5078 308.75C77.0898 307.826 76.3809 307.246 76.3809 307.01C76.3809 306.279 77.0254 305.828 78.3145 305.656C79.6035 305.484 82.6973 305.398 87.5957 305.398H93.4932C100.132 305.398 104.321 307.321 106.062 311.167C106.577 312.306 106.835 313.81 106.835 315.679C106.835 317.526 106.266 319.234 105.127 320.803C103.988 322.371 102.71 323.628 101.292 324.573L98.1982 326.636C98.1982 326.7 98.542 326.926 99.2295 327.312C101.356 328.473 102.882 329.794 103.806 331.276C104.751 332.759 105.224 334.51 105.224 336.529C105.224 340.826 103.344 344.285 99.584 346.906C98.1875 347.895 96.3828 348.7 94.1699 349.323C91.9785 349.925 89.5938 350.226 87.0156 350.226H81.9561L81.0859 350.193H77.7666C71.5146 350.193 68.3887 349.839 68.3887 349.13C68.3887 348.657 69.377 347.884 71.3535 346.81C72.5137 346.187 73.3408 345.048 73.835 343.394C74.6084 340.772 75.7793 335.036 77.3477 326.185ZM119.79 320.964C121.53 320.964 122.4 322.285 122.4 324.928C122.4 326.389 121.971 329.171 121.111 333.274C120.273 337.356 119.854 340.139 119.854 341.621C119.854 344.35 120.789 345.714 122.658 345.714C123.281 345.714 124.087 345.392 125.075 344.747C129.565 341.868 132.423 335.863 133.647 326.732C133.905 324.863 134.163 323.617 134.421 322.994C134.894 321.855 135.785 321.286 137.096 321.286C137.891 321.286 138.557 321.791 139.094 322.801C139.631 323.811 139.899 324.842 139.899 325.895C139.899 326.926 139.609 328.967 139.029 332.018C138.449 335.068 138.159 337.077 138.159 338.044C138.159 339.011 138.514 340.321 139.223 341.976C139.953 343.608 140.318 344.618 140.318 345.005C140.318 346.187 139.932 347.271 139.158 348.26C138.385 349.248 137.235 349.742 135.71 349.742C134.185 349.742 133.035 349.13 132.262 347.905C131.746 347.089 131.488 345.295 131.488 342.523C131.467 342.137 131.37 341.943 131.198 341.943C131.026 341.943 130.618 342.309 129.974 343.039C125.956 347.68 122.143 350 118.533 350C114.924 350 113.119 347.895 113.119 343.684C113.119 342.523 113.603 339.73 114.569 335.305C115.558 330.857 116.052 328.021 116.052 326.797C116.052 325.551 115.386 324.842 114.054 324.67C112.851 324.498 112.249 324.315 112.249 324.122C112.249 323.907 112.668 323.596 113.506 323.188C116.471 321.705 118.565 320.964 119.79 320.964ZM150.953 328.473C150.266 328.473 149.922 328.075 149.922 327.28C149.922 324.745 150.577 322.779 151.888 321.383C152.683 320.545 154.133 320.126 156.238 320.126H157.108C158.419 320.126 160.234 320.309 162.555 320.674C164.875 321.039 166.443 321.222 167.26 321.222C168.098 321.222 169.107 321.093 170.289 320.835C171.492 320.556 172.244 320.416 172.545 320.416C173.641 320.416 174.188 320.899 174.188 321.866C174.188 322.833 171.073 326.518 164.843 332.92C158.612 339.301 155.497 343.168 155.497 344.521C155.497 345.102 158.43 345.392 164.295 345.392C165.906 345.392 167.099 345.198 167.872 344.812C168.667 344.403 169.344 343.963 169.902 343.49C170.482 343.018 170.912 342.781 171.191 342.781C171.814 342.781 172.126 343.286 172.126 344.296C172.126 346.509 171.546 348.271 170.386 349.581C169.548 350.526 168.065 350.999 165.938 350.999H165.133C163.973 350.999 161.835 350.688 158.72 350.064C155.604 349.463 153.521 349.162 152.468 349.162C151.415 349.162 150.427 349.259 149.503 349.452C148.601 349.646 147.924 349.742 147.473 349.742C146.828 349.742 146.506 349.441 146.506 348.84C146.506 347.637 147.279 346.101 148.826 344.231C150.395 342.362 153.542 339.011 158.269 334.177C162.995 329.321 165.358 326.657 165.358 326.185C165.358 325.712 163.822 325.476 160.75 325.476L157.334 325.379C155.938 325.379 154.788 325.733 153.886 326.442C152.167 327.796 151.189 328.473 150.953 328.473ZM181.504 328.473C180.816 328.473 180.473 328.075 180.473 327.28C180.473 324.745 181.128 322.779 182.438 321.383C183.233 320.545 184.684 320.126 186.789 320.126H187.659C188.97 320.126 190.785 320.309 193.105 320.674C195.426 321.039 196.994 321.222 197.811 321.222C198.648 321.222 199.658 321.093 200.84 320.835C202.043 320.556 202.795 320.416 203.096 320.416C204.191 320.416 204.739 320.899 204.739 321.866C204.739 322.833 201.624 326.518 195.394 332.92C189.163 339.301 186.048 343.168 186.048 344.521C186.048 345.102 188.98 345.392 194.846 345.392C196.457 345.392 197.649 345.198 198.423 344.812C199.218 344.403 199.895 343.963 200.453 343.49C201.033 343.018 201.463 342.781 201.742 342.781C202.365 342.781 202.677 343.286 202.677 344.296C202.677 346.509 202.097 348.271 200.937 349.581C200.099 350.526 198.616 350.999 196.489 350.999H195.684C194.523 350.999 192.386 350.688 189.271 350.064C186.155 349.463 184.071 349.162 183.019 349.162C181.966 349.162 180.978 349.259 180.054 349.452C179.151 349.646 178.475 349.742 178.023 349.742C177.379 349.742 177.057 349.441 177.057 348.84C177.057 347.637 177.83 346.101 179.377 344.231C180.945 342.362 184.093 339.011 188.819 334.177C193.546 329.321 195.909 326.657 195.909 326.185C195.909 325.712 194.373 325.476 191.301 325.476L187.885 325.379C186.488 325.379 185.339 325.733 184.437 326.442C182.718 327.796 181.74 328.473 181.504 328.473ZM251.726 304.979C252.392 304.979 254.594 305.28 258.332 305.882C262.092 306.483 264.068 306.838 264.262 306.945C265.271 307.504 265.776 308.911 265.776 311.167C265.776 313.423 265.368 315.12 264.552 316.259C264.294 316.603 263.939 316.774 263.488 316.774C263.273 316.774 262.468 315.829 261.071 313.938C259.696 312.026 258.278 310.684 256.817 309.91C255.356 309.137 253.477 308.75 251.178 308.75C246.645 308.75 242.52 311.156 238.803 315.969C237.234 318.01 235.978 320.502 235.032 323.445C234.108 326.389 233.646 329.257 233.646 332.05C233.646 336.132 234.57 339.451 236.418 342.008C238.566 344.973 241.66 346.455 245.699 346.455C249.33 346.455 252.939 344.951 256.527 341.943C257.988 340.697 259.041 340.074 259.686 340.074H259.718C260.362 340.074 260.674 340.461 260.652 341.234C260.652 341.986 260.223 343.168 259.363 344.779C258.525 346.369 257.666 347.443 256.785 348.002C255.926 348.561 254.067 349.141 251.21 349.742C248.374 350.344 245.85 350.645 243.637 350.645C241.424 350.645 239.265 350.226 237.159 349.388C232.647 347.583 229.521 344.457 227.781 340.01C226.9 337.775 226.46 335.337 226.46 332.694V331.599C226.46 328.226 227.169 324.863 228.587 321.512C231.509 314.68 236.149 309.835 242.509 306.978C245.474 305.646 248.546 304.979 251.726 304.979ZM283.727 322.897H282.792C281.89 322.897 280.858 323.241 279.698 323.929C278.538 324.616 277.41 325.755 276.314 327.345C274.123 330.524 273.027 334.069 273.027 337.979V339.591C273.027 341.825 273.543 343.641 274.574 345.037C275.605 346.434 276.776 347.132 278.087 347.132H278.731C281.073 347.132 283.286 345.531 285.37 342.33C287.454 339.107 288.496 335.659 288.496 331.985V330.696C288.496 328.677 288.045 326.872 287.143 325.282C286.262 323.692 285.123 322.897 283.727 322.897ZM266.808 339.043V338.108L266.84 337.625C266.84 335.562 267.334 333.328 268.322 330.922C269.289 328.516 270.61 326.475 272.286 324.799C275.767 321.318 279.516 319.578 283.533 319.578L284.017 319.546C287.153 319.546 289.71 320.599 291.687 322.704C293.685 324.788 294.684 327.549 294.684 330.986V331.953C294.684 336.787 292.922 341.148 289.398 345.037C288.002 346.584 286.262 347.884 284.178 348.937C282.094 349.968 280.021 350.483 277.958 350.483H277.475L276.991 350.451C273.983 350.451 271.534 349.345 269.644 347.132C267.753 344.919 266.808 342.223 266.808 339.043ZM321.271 302.079H322.237C323.741 302.079 324.944 302.326 325.847 302.82C326.749 303.314 327.2 303.927 327.2 304.657V305.463C327.2 306.279 326.889 306.978 326.266 307.558C325.643 308.116 324.998 308.396 324.332 308.396C323.666 308.396 322.86 308.062 321.915 307.396C320.97 306.709 320.143 306.365 319.434 306.365C317.65 306.365 316.157 307.439 314.954 309.588C313.472 312.23 312.73 314.916 312.73 317.645C312.73 318.504 312.956 319.17 313.407 319.643C313.88 320.094 314.847 320.438 316.308 320.674C317.79 320.91 318.531 321.458 318.531 322.317C318.531 322.64 317.779 323.08 316.275 323.639C314.75 324.197 313.579 324.756 312.763 325.314C311.946 325.873 311.323 326.775 310.894 328.021C310.442 329.311 309.443 334.037 307.896 342.201C306.35 350.408 305.179 355.178 304.384 356.51C302.665 359.453 300.216 360.925 297.036 360.925C297.015 360.925 296.993 360.925 296.972 360.925C294.437 360.925 293.169 360.076 293.169 358.379C293.169 357.756 293.738 357.208 294.877 356.735C296.016 356.284 296.95 355.693 297.681 354.963C298.411 354.232 299.099 352.986 299.743 351.225C300.388 349.484 301.236 345.703 302.289 339.881C303.342 334.059 303.868 329.944 303.868 327.538C303.868 326.808 303.578 325.873 302.998 324.734C302.439 323.596 302.16 322.715 302.16 322.092C302.16 321.447 302.848 320.577 304.223 319.481C305.039 318.837 306.103 316.957 307.413 313.842C308.745 310.727 310.056 308.438 311.345 306.978C312.655 305.517 314.224 304.335 316.05 303.433C317.876 302.53 319.616 302.079 321.271 302.079ZM343.636 302.079H344.603C346.106 302.079 347.31 302.326 348.212 302.82C349.114 303.314 349.565 303.927 349.565 304.657V305.463C349.565 306.279 349.254 306.978 348.631 307.558C348.008 308.116 347.363 308.396 346.697 308.396C346.031 308.396 345.226 308.062 344.28 307.396C343.335 306.709 342.508 306.365 341.799 306.365C340.016 306.365 338.522 307.439 337.319 309.588C335.837 312.23 335.096 314.916 335.096 317.645C335.096 318.504 335.321 319.17 335.772 319.643C336.245 320.094 337.212 320.438 338.673 320.674C340.155 320.91 340.896 321.458 340.896 322.317C340.896 322.64 340.145 323.08 338.641 323.639C337.115 324.197 335.944 324.756 335.128 325.314C334.312 325.873 333.688 326.775 333.259 328.021C332.808 329.311 331.809 334.037 330.262 342.201C328.715 350.408 327.544 355.178 326.749 356.51C325.03 359.453 322.581 360.925 319.401 360.925C319.38 360.925 319.358 360.925 319.337 360.925C316.802 360.925 315.534 360.076 315.534 358.379C315.534 357.756 316.104 357.208 317.242 356.735C318.381 356.284 319.315 355.693 320.046 354.963C320.776 354.232 321.464 352.986 322.108 351.225C322.753 349.484 323.602 345.703 324.654 339.881C325.707 334.059 326.233 329.944 326.233 327.538C326.233 326.808 325.943 325.873 325.363 324.734C324.805 323.596 324.525 322.715 324.525 322.092C324.525 321.447 325.213 320.577 326.588 319.481C327.404 318.837 328.468 316.957 329.778 313.842C331.11 310.727 332.421 308.438 333.71 306.978C335.021 305.517 336.589 304.335 338.415 303.433C340.241 302.53 341.981 302.079 343.636 302.079ZM350.242 332.308V332.92C350.242 333.457 350.457 333.726 350.887 333.726H351.241C352.831 333.726 355.517 332.866 359.298 331.147C361.683 330.073 362.875 328.645 362.875 326.861V326.7L362.843 326.507C362.843 325.497 362.563 324.638 362.005 323.929C361.446 323.22 360.63 322.865 359.556 322.865H359.008C357.139 322.865 355.409 323.757 353.819 325.54C351.435 328.226 350.242 330.481 350.242 332.308ZM353.884 350.451H352.627C351.188 350.451 349.802 350.14 348.47 349.517C347.159 348.872 346.106 348.034 345.312 347.003C343.743 345.005 342.959 342.545 342.959 339.623V339.011C342.959 333.962 344.721 329.461 348.244 325.508C349.834 323.725 351.682 322.307 353.787 321.254C355.893 320.201 357.966 319.675 360.007 319.675H360.619C363.219 319.675 365.195 320.352 366.549 321.705C367.902 323.059 368.579 324.777 368.579 326.861C368.579 328.924 367.784 330.557 366.194 331.76C364.11 333.328 360.351 334.682 354.915 335.82C352.788 336.271 351.488 336.637 351.016 336.916C350.027 337.475 349.533 338.613 349.533 340.332C349.533 342.029 350.146 343.404 351.37 344.457C352.616 345.488 353.98 346.004 355.463 346.004C356.945 346.004 358.643 345.574 360.555 344.715C362.488 343.834 363.713 343.394 364.229 343.394C364.744 343.394 365.002 343.608 365.002 344.038C365.002 345.263 363.681 346.638 361.038 348.163C358.396 349.688 356.011 350.451 353.884 350.451Z" fill="#8D3F01"/>
<defs>
<filter id="filter0_iii_102_3" x="120.195" y="79.8094" width="161.046" height="164.371" filterUnits="userSpaceOnUse" color-interpolation-filters="sRGB">
<feFlood flood-opacity="0" result="BackgroundImageFix"/>
<feBlend mode="normal" in="SourceGraphic" in2="BackgroundImageFix" result="shape"/>
<feColorMatrix in="SourceAlpha" type="matrix" values="0 0 0 0 0 0 0 0 0 0 0 0 0 0 0 0 0 0 127 0" result="hardAlpha"/>
<feOffset dx="-11" dy="-6"/>
<feComposite in2="hardAlpha" operator="arithmetic" k2="-1" k3="1"/>
<feColorMatrix type="matrix" values="0 0 0 0 0.380392 0 0 0 0 0.172549 0 0 0 0 0.0156863 0 0 0 1 0"/>
<feBlend mode="normal" in2="shape" result="effect1_innerShadow_102_3"/>
<feColorMatrix in="SourceAlpha" type="matrix" values="0 0 0 0 0 0 0 0 0 0 0 0 0 0 0 0 0 0 127 0" result="hardAlpha"/>
<feOffset dx="-36" dy="-15"/>
<feComposite in2="hardAlpha" operator="arithmetic" k2="-1" k3="1"/>
<feColorMatrix type="matrix" values="0 0 0 0 0.384314 0 0 0 0 0.160784 0 0 0 0 0.027451 0 0 0 0.44 0"/>
<feBlend mode="normal" in2="effect1_innerShadow_102_3" result="effect2_innerShadow_102_3"/>
<feColorMatrix in="SourceAlpha" type="matrix" values="0 0 0 0 0 0 0 0 0 0 0 0 0 0 0 0 0 0 127 0" result="hardAlpha"/>
<feOffset dx="3" dy="2"/>
<feComposite in2="hardAlpha" operator="arithmetic" k2="-1" k3="1"/>
<feColorMatrix type="matrix" values="0 0 0 0 0.8 0 0 0 0 0.470588 0 0 0 0 0.262745 0 0 0 1 0"/>
<feBlend mode="normal" in2="effect2_innerShadow_102_3" result="effect3_innerShadow_102_3"/>
</filter>
<filter id="filter1_di_102_3" x="141.841" y="90.0917" width="115.517" height="149.902" filterUnits="userSpaceOnUse" color-interpolation-filters="sRGB">
<feFlood flood-opacity="0" result="BackgroundImageFix"/>
<feColorMatrix in="SourceAlpha" type="matrix" values="0 0 0 0 0 0 0 0 0 0 0 0 0 0 0 0 0 0 127 0" result="hardAlpha"/>
<feOffset dx="-2"/>
<feComposite in2="hardAlpha" operator="out"/>
<feColorMatrix type="matrix" values="0 0 0 0 0.8 0 0 0 0 0.470588 0 0 0 0 0.262745 0 0 0 1 0"/>
<feBlend mode="normal" in2="BackgroundImageFix" result="effect1_dropShadow_102_3"/>
<feBlend mode="normal" in="SourceGraphic" in2="effect1_dropShadow_102_3" result="shape"/>
<feColorMatrix in="SourceAlpha" type="matrix" values="0 0 0 0 0 0 0 0 0 0 0 0 0 0 0 0 0 0 127 0" result="hardAlpha"/>
<feOffset dx="-4"/>
<feComposite in2="hardAlpha" operator="arithmetic" k2="-1" k3="1"/>
<feColorMatrix type="matrix" values="0 0 0 0 0.8 0 0 0 0 0.470588 0 0 0 0 0.262745 0 0 0 1 0"/>
<feBlend mode="normal" in2="shape" result="effect2_innerShadow_102_3"/>
</filter>
<filter id="filter2_iii_102_3" x="155.534" y="152.653" width="185.031" height="124.445" filterUnits="userSpaceOnUse" color-interpolation-filters="sRGB">
<feFlood flood-opacity="0" result="BackgroundImageFix"/>
<feBlend mode="normal" in="SourceGraphic" in2="BackgroundImageFix" result="shape"/>
<feColorMatrix in="SourceAlpha" type="matrix" values="0 0 0 0 0 0 0 0 0 0 0 0 0 0 0 0 0 0 127 0" result="hardAlpha"/>
<feOffset dx="-11" dy="-4"/>
<feComposite in2="hardAlpha" operator="arithmetic" k2="-1" k3="1"/>
<feColorMatrix type="matrix" values="0 0 0 0 0.380392 0 0 0 0 0.172549 0 0 0 0 0.0156863 0 0 0 1 0"/>
<feBlend mode="normal" in2="shape" result="effect1_innerShadow_102_3"/>
<feColorMatrix in="SourceAlpha" type="matrix" values="0 0 0 0 0 0 0 0 0 0 0 0 0 0 0 0 0 0 127 0" result="hardAlpha"/>
<feOffset dx="-36" dy="-15"/>
<feComposite in2="hardAlpha" operator="arithmetic" k2="-1" k3="1"/>
<feColorMatrix type="matrix" values="0 0 0 0 0.384314 0 0 0 0 0.160784 0 0 0 0 0.027451 0 0 0 0.44 0"/>
<feBlend mode="normal" in2="effect1_innerShadow_102_3" result="effect2_innerShadow_102_3"/>
<feColorMatrix in="SourceAlpha" type="matrix" values="0 0 0 0 0 0 0 0 0 0 0 0 0 0 0 0 0 0 127 0" result="hardAlpha"/>
<feOffset dx="2"/>
<feComposite in2="hardAlpha" operator="arithmetic" k2="-1" k3="1"/>
<feColorMatrix type="matrix" values="0 0 0 0 0.8 0 0 0 0 0.470588 0 0 0 0 0.262745 0 0 0 1 0"/>
<feBlend mode="normal" in2="effect2_innerShadow_102_3" result="effect3_innerShadow_102_3"/>
</filter>
<filter id="filter3_di_102_3" x="159.407" y="176.848" width="175.016" height="77.8785" filterUnits="userSpaceOnUse" color-interpolation-filters="sRGB">
<feFlood flood-opacity="0" result="BackgroundImageFix"/>
<feColorMatrix in="SourceAlpha" type="matrix" values="0 0 0 0 0 0 0 0 0 0 0 0 0 0 0 0 0 0 127 0" result="hardAlpha"/>
<feOffset dx="-2"/>
<feComposite in2="hardAlpha" operator="out"/>
<feColorMatrix type="matrix" values="0 0 0 0 0.8 0 0 0 0 0.470588 0 0 0 0 0.262745 0 0 0 1 0"/>
<feBlend mode="normal" in2="BackgroundImageFix" result="effect1_dropShadow_102_3"/>
<feBlend mode="normal" in="SourceGraphic" in2="effect1_dropShadow_102_3" result="shape"/>
<feColorMatrix in="SourceAlpha" type="matrix" values="0 0 0 0 0 0 0 0 0 0 0 0 0 0 0 0 0 0 127 0" result="hardAlpha"/>
<feOffset dx="-4"/>
<feComposite in2="hardAlpha" operator="arithmetic" k2="-1" k3="1"/>
<feColorMatrix type="matrix" values="0 0 0 0 0.8 0 0 0 0 0.470588 0 0 0 0 0.262745 0 0 0 1 0"/>
<feBlend mode="normal" in2="shape" result="effect2_innerShadow_102_3"/>
</filter>
</defs>
</svg>
