<svg width="439" height="460" viewBox="0 0 439 460" fill="none" xmlns="http://www.w3.org/2000/svg">
<g filter="url(#filter0_iii_102_3)">
<path d="M141.746 142.098C172.857 99.8085 228.104 65.9856 254.568 85.4543C281.033 104.923 294.326 139.057 263.215 181.346C232.104 223.636 168.37 258.067 141.906 238.598C115.442 219.129 110.635 184.387 141.746 142.098Z" fill="#8D3F01"/>
</g>
<g filter="url(#filter1_di_102_3)">
<path d="M194.023 197.11C167.543 230.159 143.841 239.994 143.841 239.994C143.841 239.994 162.887 216.307 173.515 195.263C184.711 173.092 177.687 154.75 192.897 135.114C224.299 94.5753 257.358 90.0917 257.358 90.0917C257.358 90.0917 224.12 124.355 212.633 146.02C200.008 169.832 210.876 176.077 194.023 197.11Z" fill="#3F1C04"/>
</g>
<path d="M198.734 150.239C224.84 138.697 255.892 137.874 280.931 139.792C280.931 159.38 196.481 253.244 153.402 243.453C152.42 242.059 151.583 240.592 150.901 239.05C137.617 209.001 150.717 171.467 198.734 150.239Z" fill="black" fill-opacity="0.2"/>
<g filter="url(#filter2_iii_102_3)">
<path d="M208.255 168.46C256.273 147.232 321.024 145.349 334.308 175.398C347.592 205.446 342.158 241.672 294.141 262.9C246.123 284.128 173.706 282.319 160.422 252.271C147.138 222.222 160.238 189.688 208.255 168.46Z" fill="#8D3F01"/>
</g>
<g filter="url(#filter3_di_102_3)">
<path d="M226.268 242.181C186.862 257.693 161.407 254.443 161.407 254.443C161.407 254.443 189.709 243.359 209.391 230.383C230.128 216.712 233.151 197.304 256.11 187.828C303.509 168.264 334.423 180.808 334.423 180.808C334.423 180.808 288.551 194.014 267.813 207.102C245.021 221.487 251.346 232.309 226.268 242.181Z" fill="#3F1C04"/>
</g>
<ellipse cx="215" cy="382.5" rx="121" ry="11.5" fill="#040200" fill-opacity="0.51"/>
<path d="M96.7803 304.979C97.4463 304.979 99.6484 305.28 103.387 305.882C107.146 306.483 109.123 306.838 109.316 306.945C110.326 307.504 110.831 308.911 110.831 311.167C110.831 313.423 110.423 315.12 109.606 316.259C109.349 316.603 108.994 316.774 108.543 316.774C108.328 316.774 107.522 315.829 106.126 313.938C104.751 312.026 103.333 310.684 101.872 309.91C100.411 309.137 98.5312 308.75 96.2324 308.75C91.6992 308.75 87.5742 311.156 83.8574 315.969C82.2891 318.01 81.0322 320.502 80.0869 323.445C79.1631 326.389 78.7012 329.257 78.7012 332.05C78.7012 336.132 79.625 339.451 81.4727 342.008C83.6211 344.973 86.7148 346.455 90.7539 346.455C94.3848 346.455 97.9941 344.951 101.582 341.943C103.043 340.697 104.096 340.074 104.74 340.074H104.772C105.417 340.074 105.729 340.461 105.707 341.234C105.707 341.986 105.277 343.168 104.418 344.779C103.58 346.369 102.721 347.443 101.84 348.002C100.98 348.561 99.1221 349.141 96.2646 349.742C93.4287 350.344 90.9043 350.645 88.6914 350.645C86.4785 350.645 84.3193 350.226 82.2139 349.388C77.7021 347.583 74.5762 344.457 72.8359 340.01C71.9551 337.775 71.5146 335.337 71.5146 332.694V331.599C71.5146 328.226 72.2236 324.863 73.6416 321.512C76.5635 314.68 81.2041 309.835 87.5635 306.978C90.5283 305.646 93.6006 304.979 96.7803 304.979ZM128.781 322.897H127.847C126.944 322.897 125.913 323.241 124.753 323.929C123.593 324.616 122.465 325.755 121.369 327.345C119.178 330.524 118.082 334.069 118.082 337.979V339.591C118.082 341.825 118.598 343.641 119.629 345.037C120.66 346.434 121.831 347.132 123.142 347.132H123.786C126.128 347.132 128.341 345.531 130.425 342.33C132.509 339.107 133.551 335.659 133.551 331.985V330.696C133.551 328.677 133.1 326.872 132.197 325.282C131.316 323.692 130.178 322.897 128.781 322.897ZM111.862 339.043V338.108L111.895 337.625C111.895 335.562 112.389 333.328 113.377 330.922C114.344 328.516 115.665 326.475 117.341 324.799C120.821 321.318 124.57 319.578 128.588 319.578L129.071 319.546C132.208 319.546 134.765 320.599 136.741 322.704C138.739 324.788 139.738 327.549 139.738 330.986V331.953C139.738 336.787 137.977 341.148 134.453 345.037C133.057 346.584 131.316 347.884 129.232 348.937C127.148 349.968 125.075 350.483 123.013 350.483H122.529L122.046 350.451C119.038 350.451 116.589 349.345 114.698 347.132C112.808 344.919 111.862 342.223 111.862 339.043ZM166.325 302.079H167.292C168.796 302.079 169.999 302.326 170.901 302.82C171.804 303.314 172.255 303.927 172.255 304.657V305.463C172.255 306.279 171.943 306.978 171.32 307.558C170.697 308.116 170.053 308.396 169.387 308.396C168.721 308.396 167.915 308.062 166.97 307.396C166.024 306.709 165.197 306.365 164.488 306.365C162.705 306.365 161.212 307.439 160.009 309.588C158.526 312.23 157.785 314.916 157.785 317.645C157.785 318.504 158.011 319.17 158.462 319.643C158.935 320.094 159.901 320.438 161.362 320.674C162.845 320.91 163.586 321.458 163.586 322.317C163.586 322.64 162.834 323.08 161.33 323.639C159.805 324.197 158.634 324.756 157.817 325.314C157.001 325.873 156.378 326.775 155.948 328.021C155.497 329.311 154.498 334.037 152.951 342.201C151.404 350.408 150.233 355.178 149.438 356.51C147.72 359.453 145.271 360.925 142.091 360.925C142.069 360.925 142.048 360.925 142.026 360.925C139.491 360.925 138.224 360.076 138.224 358.379C138.224 357.756 138.793 357.208 139.932 356.735C141.07 356.284 142.005 355.693 142.735 354.963C143.466 354.232 144.153 352.986 144.798 351.225C145.442 349.484 146.291 345.703 147.344 339.881C148.396 334.059 148.923 329.944 148.923 327.538C148.923 326.808 148.633 325.873 148.053 324.734C147.494 323.596 147.215 322.715 147.215 322.092C147.215 321.447 147.902 320.577 149.277 319.481C150.094 318.837 151.157 316.957 152.468 313.842C153.8 310.727 155.11 308.438 156.399 306.978C157.71 305.517 159.278 304.335 161.104 303.433C162.931 302.53 164.671 302.079 166.325 302.079ZM188.69 302.079H189.657C191.161 302.079 192.364 302.326 193.267 302.82C194.169 303.314 194.62 303.927 194.62 304.657V305.463C194.62 306.279 194.309 306.978 193.686 307.558C193.062 308.116 192.418 308.396 191.752 308.396C191.086 308.396 190.28 308.062 189.335 307.396C188.39 306.709 187.562 306.365 186.854 306.365C185.07 306.365 183.577 307.439 182.374 309.588C180.892 312.23 180.15 314.916 180.15 317.645C180.15 318.504 180.376 319.17 180.827 319.643C181.3 320.094 182.267 320.438 183.728 320.674C185.21 320.91 185.951 321.458 185.951 322.317C185.951 322.64 185.199 323.08 183.695 323.639C182.17 324.197 180.999 324.756 180.183 325.314C179.366 325.873 178.743 326.775 178.313 328.021C177.862 329.311 176.863 334.037 175.316 342.201C173.77 350.408 172.599 355.178 171.804 356.51C170.085 359.453 167.636 360.925 164.456 360.925C164.435 360.925 164.413 360.925 164.392 360.925C161.856 360.925 160.589 360.076 160.589 358.379C160.589 357.756 161.158 357.208 162.297 356.735C163.436 356.284 164.37 355.693 165.101 354.963C165.831 354.232 166.519 352.986 167.163 351.225C167.808 349.484 168.656 345.703 169.709 339.881C170.762 334.059 171.288 329.944 171.288 327.538C171.288 326.808 170.998 325.873 170.418 324.734C169.859 323.596 169.58 322.715 169.58 322.092C169.58 321.447 170.268 320.577 171.643 319.481C172.459 318.837 173.522 316.957 174.833 313.842C176.165 310.727 177.476 308.438 178.765 306.978C180.075 305.517 181.644 304.335 183.47 303.433C185.296 302.53 187.036 302.079 188.69 302.079ZM195.297 332.308V332.92C195.297 333.457 195.512 333.726 195.941 333.726H196.296C197.886 333.726 200.571 332.866 204.353 331.147C206.737 330.073 207.93 328.645 207.93 326.861V326.7L207.897 326.507C207.897 325.497 207.618 324.638 207.06 323.929C206.501 323.22 205.685 322.865 204.61 322.865H204.062C202.193 322.865 200.464 323.757 198.874 325.54C196.489 328.226 195.297 330.481 195.297 332.308ZM198.938 350.451H197.682C196.242 350.451 194.856 350.14 193.524 349.517C192.214 348.872 191.161 348.034 190.366 347.003C188.798 345.005 188.014 342.545 188.014 339.623V339.011C188.014 333.962 189.775 329.461 193.299 325.508C194.889 323.725 196.736 322.307 198.842 321.254C200.947 320.201 203.021 319.675 205.062 319.675H205.674C208.273 319.675 210.25 320.352 211.604 321.705C212.957 323.059 213.634 324.777 213.634 326.861C213.634 328.924 212.839 330.557 211.249 331.76C209.165 333.328 205.405 334.682 199.97 335.82C197.843 336.271 196.543 336.637 196.07 336.916C195.082 337.475 194.588 338.613 194.588 340.332C194.588 342.029 195.2 343.404 196.425 344.457C197.671 345.488 199.035 346.004 200.518 346.004C202 346.004 203.697 345.574 205.609 344.715C207.543 343.834 208.768 343.394 209.283 343.394C209.799 343.394 210.057 343.608 210.057 344.038C210.057 345.263 208.735 346.638 206.093 348.163C203.45 349.688 201.065 350.451 198.938 350.451ZM250.243 325.25H251.339L251.629 325.218L253.885 325.153C254.078 325.132 254.271 325.121 254.465 325.121C256.871 325.121 259.041 324.24 260.975 322.479C262.908 320.695 263.875 318.558 263.875 316.065V315.195C263.875 313.197 263.177 311.618 261.78 310.458C260.384 309.298 258.536 308.718 256.237 308.718H254.497C252.585 308.718 251.446 309.104 251.081 309.878C250.716 310.651 250.179 313.068 249.47 317.129L249.405 317.419L249.309 317.967L249.244 318.225L249.115 319.03L249.019 319.578L248.954 319.868L248.89 320.126L248.696 321.222L248.213 323.864V324.573C248.213 325.024 248.89 325.25 250.243 325.25ZM249.566 328.505C248.234 328.505 247.418 328.892 247.117 329.665C247.074 329.772 246.881 330.643 246.537 332.275C246.193 333.908 245.968 335.047 245.86 335.691C245.774 336.314 245.463 337.872 244.926 340.364C244.41 342.835 244.152 344.489 244.152 345.327C244.152 346.315 245.065 346.81 246.892 346.81L247.182 346.842L247.504 346.874L248.793 346.906H250.404C253.627 346.906 256.237 346.122 258.235 344.554C260.813 342.491 262.103 339.935 262.103 336.884V335.917C262.103 333.661 261.232 331.856 259.492 330.503C257.773 329.128 255.41 328.44 252.402 328.44H250.469C250.039 328.483 249.738 328.505 249.566 328.505ZM241.123 326.185C242.691 317.312 243.476 312.316 243.476 311.199C243.476 310.082 243.078 309.266 242.283 308.75C240.865 307.826 240.156 307.246 240.156 307.01C240.156 306.279 240.801 305.828 242.09 305.656C243.379 305.484 246.473 305.398 251.371 305.398H257.269C263.907 305.398 268.097 307.321 269.837 311.167C270.353 312.306 270.61 313.81 270.61 315.679C270.61 317.526 270.041 319.234 268.902 320.803C267.764 322.371 266.485 323.628 265.067 324.573L261.974 326.636C261.974 326.7 262.317 326.926 263.005 327.312C265.132 328.473 266.657 329.794 267.581 331.276C268.526 332.759 268.999 334.51 268.999 336.529C268.999 340.826 267.119 344.285 263.359 346.906C261.963 347.895 260.158 348.7 257.945 349.323C255.754 349.925 253.369 350.226 250.791 350.226H245.731L244.861 350.193H241.542C235.29 350.193 232.164 349.839 232.164 349.13C232.164 348.657 233.152 347.884 235.129 346.81C236.289 346.187 237.116 345.048 237.61 343.394C238.384 340.772 239.555 335.036 241.123 326.185ZM283.565 320.964C285.306 320.964 286.176 322.285 286.176 324.928C286.176 326.389 285.746 329.171 284.887 333.274C284.049 337.356 283.63 340.139 283.63 341.621C283.63 344.35 284.564 345.714 286.434 345.714C287.057 345.714 287.862 345.392 288.851 344.747C293.341 341.868 296.198 335.863 297.423 326.732C297.681 324.863 297.938 323.617 298.196 322.994C298.669 321.855 299.561 321.286 300.871 321.286C301.666 321.286 302.332 321.791 302.869 322.801C303.406 323.811 303.675 324.842 303.675 325.895C303.675 326.926 303.385 328.967 302.805 332.018C302.225 335.068 301.935 337.077 301.935 338.044C301.935 339.011 302.289 340.321 302.998 341.976C303.729 343.608 304.094 344.618 304.094 345.005C304.094 346.187 303.707 347.271 302.934 348.26C302.16 349.248 301.011 349.742 299.485 349.742C297.96 349.742 296.811 349.13 296.037 347.905C295.521 347.089 295.264 345.295 295.264 342.523C295.242 342.137 295.146 341.943 294.974 341.943C294.802 341.943 294.394 342.309 293.749 343.039C289.731 347.68 285.918 350 282.309 350C278.699 350 276.895 347.895 276.895 343.684C276.895 342.523 277.378 339.73 278.345 335.305C279.333 330.857 279.827 328.021 279.827 326.797C279.827 325.551 279.161 324.842 277.829 324.67C276.626 324.498 276.024 324.315 276.024 324.122C276.024 323.907 276.443 323.596 277.281 323.188C280.246 321.705 282.341 320.964 283.565 320.964ZM314.729 328.473C314.041 328.473 313.697 328.075 313.697 327.28C313.697 324.745 314.353 322.779 315.663 321.383C316.458 320.545 317.908 320.126 320.014 320.126H320.884C322.194 320.126 324.01 320.309 326.33 320.674C328.65 321.039 330.219 321.222 331.035 321.222C331.873 321.222 332.883 321.093 334.064 320.835C335.268 320.556 336.02 320.416 336.32 320.416C337.416 320.416 337.964 320.899 337.964 321.866C337.964 322.833 334.849 326.518 328.618 332.92C322.388 339.301 319.272 343.168 319.272 344.521C319.272 345.102 322.205 345.392 328.07 345.392C329.682 345.392 330.874 345.198 331.647 344.812C332.442 344.403 333.119 343.963 333.678 343.49C334.258 343.018 334.688 342.781 334.967 342.781C335.59 342.781 335.901 343.286 335.901 344.296C335.901 346.509 335.321 348.271 334.161 349.581C333.323 350.526 331.841 350.999 329.714 350.999H328.908C327.748 350.999 325.61 350.688 322.495 350.064C319.38 349.463 317.296 349.162 316.243 349.162C315.19 349.162 314.202 349.259 313.278 349.452C312.376 349.646 311.699 349.742 311.248 349.742C310.604 349.742 310.281 349.441 310.281 348.84C310.281 347.637 311.055 346.101 312.602 344.231C314.17 342.362 317.317 339.011 322.044 334.177C326.771 329.321 329.134 326.657 329.134 326.185C329.134 325.712 327.598 325.476 324.525 325.476L321.109 325.379C319.713 325.379 318.563 325.733 317.661 326.442C315.942 327.796 314.965 328.473 314.729 328.473ZM345.279 328.473C344.592 328.473 344.248 328.075 344.248 327.28C344.248 324.745 344.903 322.779 346.214 321.383C347.009 320.545 348.459 320.126 350.564 320.126H351.435C352.745 320.126 354.561 320.309 356.881 320.674C359.201 321.039 360.77 321.222 361.586 321.222C362.424 321.222 363.434 321.093 364.615 320.835C365.818 320.556 366.57 320.416 366.871 320.416C367.967 320.416 368.515 320.899 368.515 321.866C368.515 322.833 365.399 326.518 359.169 332.92C352.938 339.301 349.823 343.168 349.823 344.521C349.823 345.102 352.756 345.392 358.621 345.392C360.232 345.392 361.425 345.198 362.198 344.812C362.993 344.403 363.67 343.963 364.229 343.49C364.809 343.018 365.238 342.781 365.518 342.781C366.141 342.781 366.452 343.286 366.452 344.296C366.452 346.509 365.872 348.271 364.712 349.581C363.874 350.526 362.392 350.999 360.265 350.999H359.459C358.299 350.999 356.161 350.688 353.046 350.064C349.931 349.463 347.847 349.162 346.794 349.162C345.741 349.162 344.753 349.259 343.829 349.452C342.927 349.646 342.25 349.742 341.799 349.742C341.154 349.742 340.832 349.441 340.832 348.84C340.832 347.637 341.605 346.101 343.152 344.231C344.721 342.362 347.868 339.011 352.595 334.177C357.321 329.321 359.685 326.657 359.685 326.185C359.685 325.712 358.148 325.476 355.076 325.476L351.66 325.379C350.264 325.379 349.114 325.733 348.212 326.442C346.493 327.796 345.516 328.473 345.279 328.473Z" fill="#8D3F01"/>
<defs>
<filter id="filter0_iii_102_3" x="120.195" y="79.8094" width="161.046" height="164.371" filterUnits="userSpaceOnUse" color-interpolation-filters="sRGB">
<feFlood flood-opacity="0" result="BackgroundImageFix"/>
<feBlend mode="normal" in="SourceGraphic" in2="BackgroundImageFix" result="shape"/>
<feColorMatrix in="SourceAlpha" type="matrix" values="0 0 0 0 0 0 0 0 0 0 0 0 0 0 0 0 0 0 127 0" result="hardAlpha"/>
<feOffset dx="-11" dy="-6"/>
<feComposite in2="hardAlpha" operator="arithmetic" k2="-1" k3="1"/>
<feColorMatrix type="matrix" values="0 0 0 0 0.380392 0 0 0 0 0.172549 0 0 0 0 0.0156863 0 0 0 1 0"/>
<feBlend mode="normal" in2="shape" result="effect1_innerShadow_102_3"/>
<feColorMatrix in="SourceAlpha" type="matrix" values="0 0 0 0 0 0 0 0 0 0 0 0 0 0 0 0 0 0 127 0" result="hardAlpha"/>
<feOffset dx="-36" dy="-15"/>
<feComposite in2="hardAlpha" operator="arithmetic" k2="-1" k3="1"/>
<feColorMatrix type="matrix" values="0 0 0 0 0.384314 0 0 0 0 0.160784 0 0 0 0 0.027451 0 0 0 0.44 0"/>
<feBlend mode="normal" in2="effect1_innerShadow_102_3" result="effect2_innerShadow_102_3"/>
<feColorMatrix in="SourceAlpha" type="matrix" values="0 0 0 0 0 0 0 0 0 0 0 0 0 0 0 0 0 0 127 0" result="hardAlpha"/>
<feOffset dx="3" dy="2"/>
<feComposite in2="hardAlpha" operator="arithmetic" k2="-1" k3="1"/>
<feColorMatrix type="matrix" values="0 0 0 0 0.8 0 0 0 0 0.470588 0 0 0 0 0.262745 0 0 0 1 0"/>
<feBlend mode="normal" in2="effect2_innerShadow_102_3" result="effect3_innerShadow_102_3"/>
</filter>
<filter id="filter1_di_102_3" x="141.841" y="90.0917" width="115.517" height="149.902" filterUnits="userSpaceOnUse" color-interpolation-filters="sRGB">
<feFlood flood-opacity="0" result="BackgroundImageFix"/>
<feColorMatrix in="SourceAlpha" type="matrix" values="0 0 0 0 0 0 0 0 0 0 0 0 0 0 0 0 0 0 127 0" result="hardAlpha"/>
<feOffset dx="-2"/>
<feComposite in2="hardAlpha" operator="out"/>
<feColorMatrix type="matrix" values="0 0 0 0 0.8 0 0 0 0 0.470588 0 0 0 0 0.262745 0 0 0 1 0"/>
<feBlend mode="normal" in2="BackgroundImageFix" result="effect1_dropShadow_102_3"/>
<feBlend mode="normal" in="SourceGraphic" in2="effect1_dropShadow_102_3" result="shape"/>
<feColorMatrix in="SourceAlpha" type="matrix" values="0 0 0 0 0 0 0 0 0 0 0 0 0 0 0 0 0 0 127 0" result="hardAlpha"/>
<feOffset dx="-4"/>
<feComposite in2="hardAlpha" operator="arithmetic" k2="-1" k3="1"/>
<feColorMatrix type="matrix" values="0 0 0 0 0.8 0 0 0 0 0.470588 0 0 0 0 0.262745 0 0 0 1 0"/>
<feBlend mode="normal" in2="shape" result="effect2_innerShadow_102_3"/>
</filter>
<filter id="filter2_iii_102_3" x="155.534" y="152.653" width="185.031" height="124.445" filterUnits="userSpaceOnUse" color-interpolation-filters="sRGB">
<feFlood flood-opacity="0" result="BackgroundImageFix"/>
<feBlend mode="normal" in="SourceGraphic" in2="BackgroundImageFix" result="shape"/>
<feColorMatrix in="SourceAlpha" type="matrix" values="0 0 0 0 0 0 0 0 0 0 0 0 0 0 0 0 0 0 127 0" result="hardAlpha"/>
<feOffset dx="-11" dy="-4"/>
<feComposite in2="hardAlpha" operator="arithmetic" k2="-1" k3="1"/>
<feColorMatrix type="matrix" values="0 0 0 0 0.380392 0 0 0 0 0.172549 0 0 0 0 0.0156863 0 0 0 1 0"/>
<feBlend mode="normal" in2="shape" result="effect1_innerShadow_102_3"/>
<feColorMatrix in="SourceAlpha" type="matrix" values="0 0 0 0 0 0 0 0 0 0 0 0 0 0 0 0 0 0 127 0" result="hardAlpha"/>
<feOffset dx="-36" dy="-15"/>
<feComposite in2="hardAlpha" operator="arithmetic" k2="-1" k3="1"/>
<feColorMatrix type="matrix" values="0 0 0 0 0.384314 0 0 0 0 0.160784 0 0 0 0 0.027451 0 0 0 0.44 0"/>
<feBlend mode="normal" in2="effect1_innerShadow_102_3" result="effect2_innerShadow_102_3"/>
<feColorMatrix in="SourceAlpha" type="matrix" values="0 0 0 0 0 0 0 0 0 0 0 0 0 0 0 0 0 0 127 0" result="hardAlpha"/>
<feOffset dx="2"/>
<feComposite in2="hardAlpha" operator="arithmetic" k2="-1" k3="1"/>
<feColorMatrix type="matrix" values="0 0 0 0 0.8 0 0 0 0 0.470588 0 0 0 0 0.262745 0 0 0 1 0"/>
<feBlend mode="normal" in2="effect2_innerShadow_102_3" result="effect3_innerShadow_102_3"/>
</filter>
<filter id="filter3_di_102_3" x="159.407" y="176.848" width="175.016" height="77.8785" filterUnits="userSpaceOnUse" color-interpolation-filters="sRGB">
<feFlood flood-opacity="0" result="BackgroundImageFix"/>
<feColorMatrix in="SourceAlpha" type="matrix" values="0 0 0 0 0 0 0 0 0 0 0 0 0 0 0 0 0 0 127 0" result="hardAlpha"/>
<feOffset dx="-2"/>
<feComposite in2="hardAlpha" operator="out"/>
<feColorMatrix type="matrix" values="0 0 0 0 0.8 0 0 0 0 0.470588 0 0 0 0 0.262745 0 0 0 1 0"/>
<feBlend mode="normal" in2="BackgroundImageFix" result="effect1_dropShadow_102_3"/>
<feBlend mode="normal" in="SourceGraphic" in2="effect1_dropShadow_102_3" result="shape"/>
<feColorMatrix in="SourceAlpha" type="matrix" values="0 0 0 0 0 0 0 0 0 0 0 0 0 0 0 0 0 0 127 0" result="hardAlpha"/>
<feOffset dx="-4"/>
<feComposite in2="hardAlpha" operator="arithmetic" k2="-1" k3="1"/>
<feColorMatrix type="matrix" values="0 0 0 0 0.8 0 0 0 0 0.470588 0 0 0 0 0.262745 0 0 0 1 0"/>
<feBlend mode="normal" in2="shape" result="effect2_innerShadow_102_3"/>
</filter>
</defs>
</svg>
